<svg width="119" height="25" viewBox="0 0 119 25" fill="none" xmlns="http://www.w3.org/2000/svg">
<path d="M10.2481 8.14846L6.612 1.02143C6.5727 0.944384 6.54706 0.859243 6.53653 0.770866C6.52601 0.682488 6.5308 0.592605 6.55065 0.506348C6.59074 0.332145 6.68969 0.183287 6.82575 0.0925229C6.96181 0.00175833 7.12382 -0.0234783 7.27614 0.0223647C7.42847 0.0682077 7.55863 0.181375 7.638 0.336971L11.6221 8.14846H18.05C18.302 8.14846 18.5436 8.26293 18.7218 8.46667C18.8999 8.67042 19 8.94676 19 9.2349V10.8646C19.0006 12.8049 18.5467 14.71 17.6855 16.3818C16.8242 18.0536 15.5871 19.431 14.1027 20.3709H17.2188C17.3762 20.3709 17.5272 20.4424 17.6386 20.5698C17.7499 20.6971 17.8125 20.8698 17.8125 21.0499C17.8125 21.23 17.7499 21.4027 17.6386 21.5301C17.5272 21.6574 17.3762 21.7289 17.2188 21.7289H1.78125C1.62378 21.7289 1.47276 21.6574 1.36141 21.5301C1.25006 21.4027 1.1875 21.23 1.1875 21.0499C1.1875 20.8698 1.25006 20.6971 1.36141 20.5698C1.47276 20.4424 1.62378 20.3709 1.78125 20.3709H4.89725C3.41289 19.431 2.17578 18.0536 1.31454 16.3818C0.453309 14.71 -0.000603629 12.8049 6.02459e-07 10.8646V9.2349C6.02459e-07 8.94676 0.10009 8.67042 0.278249 8.46667C0.456409 8.26293 0.698045 8.14846 0.95 8.14846H6.68563L3.04831 1.02143C3.00901 0.944384 2.98337 0.859243 2.97284 0.770866C2.96232 0.682488 2.96712 0.592605 2.98697 0.506348C3.00681 0.420091 3.04132 0.33915 3.08853 0.268146C3.13573 0.197142 3.19469 0.137465 3.26206 0.0925229C3.32943 0.0475808 3.40388 0.0182534 3.48116 0.00621568C3.55844 -0.00582208 3.63703 -0.000334438 3.71246 0.0223647C3.78788 0.0450639 3.85866 0.0845302 3.92074 0.138511C3.98283 0.192491 4.03502 0.259928 4.07431 0.336971L8.05956 8.14846H10.2481ZM1.1875 9.50651V10.8646C1.1875 11.3263 1.216 11.7799 1.27063 12.2226H17.7294C17.784 11.7799 17.8125 11.3263 17.8125 10.8646V9.50651H1.1875ZM1.53188 13.5807C2.04278 15.5381 3.09124 17.2555 4.52205 18.4784C5.95287 19.7014 7.68998 20.3649 9.47625 20.3709H9.52375C11.31 20.3649 13.0471 19.7014 14.4779 18.4784C15.9088 17.2555 16.9572 15.5381 17.4681 13.5807H1.53188Z" fill="black"/>
<path d="M31.3633 13.3008C31.3633 14.2383 31.4382 15.0684 31.5879 15.791C31.7376 16.5072 31.9492 17.1094 32.2227 17.5977C32.5026 18.0859 32.8346 18.457 33.2188 18.7109C33.6094 18.9583 34.0423 19.082 34.5176 19.082C34.804 19.082 35.0579 19.0462 35.2793 18.9746C35.5007 18.903 35.6992 18.8151 35.875 18.7109C36.0573 18.6003 36.2266 18.4798 36.3828 18.3496C36.5391 18.2129 36.6921 18.0827 36.8418 17.959V19.9219C36.4772 20.013 36.1094 20.0846 35.7383 20.1367C35.3737 20.1953 34.9668 20.2246 34.5176 20.2246C33.821 20.2246 33.1764 20.0846 32.584 19.8047C31.9915 19.5247 31.4772 19.1016 31.041 18.5352C30.6113 17.9622 30.2728 17.2428 30.0254 16.377C29.7845 15.5046 29.6641 14.4792 29.6641 13.3008C29.6641 12.1224 29.791 11.1003 30.0449 10.2344C30.3053 9.36198 30.6536 8.64258 31.0898 8.07617C31.5326 7.50326 32.0469 7.07682 32.6328 6.79688C33.2253 6.51693 33.8535 6.37695 34.5176 6.37695C34.9668 6.37695 35.3737 6.40625 35.7383 6.46484C36.1094 6.51693 36.4772 6.58854 36.8418 6.67969V8.64258C36.6921 8.51888 36.5391 8.39193 36.3828 8.26172C36.2266 8.125 36.0573 8.00456 35.875 7.90039C35.6992 7.78971 35.5007 7.69857 35.2793 7.62695C35.0579 7.55534 34.804 7.51953 34.5176 7.51953C34.0423 7.51953 33.6094 7.64648 33.2188 7.90039C32.8346 8.14779 32.5026 8.51562 32.2227 9.00391C31.9492 9.49219 31.7376 10.0977 31.5879 10.8203C31.4382 11.5365 31.3633 12.3633 31.3633 13.3008ZM46.4414 13.3008C46.4414 14.5052 46.334 15.5469 46.1191 16.4258C45.9043 17.2982 45.6048 18.0208 45.2207 18.5938C44.8431 19.1602 44.3971 19.5801 43.8828 19.8535C43.3685 20.127 42.8151 20.2637 42.2227 20.2637C41.6237 20.2637 41.0671 20.127 40.5527 19.8535C40.0384 19.5801 39.5892 19.1602 39.2051 18.5938C38.8275 18.0208 38.528 17.2982 38.3066 16.4258C38.0918 15.5469 37.9844 14.5052 37.9844 13.3008C37.9844 12.1029 38.0918 11.0677 38.3066 10.1953C38.528 9.31641 38.8275 8.59049 39.2051 8.01758C39.5892 7.44466 40.0384 7.02148 40.5527 6.74805C41.0671 6.47461 41.6237 6.33789 42.2227 6.33789C42.8151 6.33789 43.3685 6.47461 43.8828 6.74805C44.3971 7.02148 44.8431 7.44466 45.2207 8.01758C45.6048 8.59049 45.9043 9.31641 46.1191 10.1953C46.334 11.0677 46.4414 12.1029 46.4414 13.3008ZM44.7617 13.3008C44.7617 12.2982 44.6966 11.4323 44.5664 10.7031C44.4362 9.97396 44.2572 9.375 44.0293 8.90625C43.8014 8.43099 43.5312 8.08268 43.2188 7.86133C42.9128 7.63346 42.5807 7.51953 42.2227 7.51953C41.8581 7.51953 41.5195 7.63346 41.207 7.86133C40.901 8.08268 40.6309 8.43099 40.3965 8.90625C40.1686 9.375 39.9896 9.97396 39.8594 10.7031C39.7292 11.4323 39.6641 12.2982 39.6641 13.3008C39.6641 14.3099 39.7292 15.179 39.8594 15.9082C39.9896 16.6374 40.1686 17.2363 40.3965 17.7051C40.6309 18.1738 40.901 18.5221 41.207 18.75C41.5195 18.9714 41.8581 19.082 42.2227 19.082C42.5807 19.082 42.9128 18.9714 43.2188 18.75C43.5312 18.5221 43.8014 18.1738 44.0293 17.7051C44.2572 17.2363 44.4362 16.6374 44.5664 15.9082C44.6966 15.179 44.7617 14.3099 44.7617 13.3008ZM56.2266 13.3008C56.2266 14.5052 56.1191 15.5469 55.9043 16.4258C55.6895 17.2982 55.39 18.0208 55.0059 18.5938C54.6283 19.1602 54.1823 19.5801 53.668 19.8535C53.1536 20.127 52.6003 20.2637 52.0078 20.2637C51.4089 20.2637 50.8522 20.127 50.3379 19.8535C49.8236 19.5801 49.3743 19.1602 48.9902 18.5938C48.6126 18.0208 48.3132 17.2982 48.0918 16.4258C47.877 15.5469 47.7695 14.5052 47.7695 13.3008C47.7695 12.1029 47.877 11.0677 48.0918 10.1953C48.3132 9.31641 48.6126 8.59049 48.9902 8.01758C49.3743 7.44466 49.8236 7.02148 50.3379 6.74805C50.8522 6.47461 51.4089 6.33789 52.0078 6.33789C52.6003 6.33789 53.1536 6.47461 53.668 6.74805C54.1823 7.02148 54.6283 7.44466 55.0059 8.01758C55.39 8.59049 55.6895 9.31641 55.9043 10.1953C56.1191 11.0677 56.2266 12.1029 56.2266 13.3008ZM54.5469 13.3008C54.5469 12.2982 54.4818 11.4323 54.3516 10.7031C54.2214 9.97396 54.0423 9.375 53.8145 8.90625C53.5866 8.43099 53.3164 8.08268 53.0039 7.86133C52.6979 7.63346 52.3659 7.51953 52.0078 7.51953C51.6432 7.51953 51.3047 7.63346 50.9922 7.86133C50.6862 8.08268 50.416 8.43099 50.1816 8.90625C49.9538 9.375 49.7747 9.97396 49.6445 10.7031C49.5143 11.4323 49.4492 12.2982 49.4492 13.3008C49.4492 14.3099 49.5143 15.179 49.6445 15.9082C49.7747 16.6374 49.9538 17.2363 50.1816 17.7051C50.416 18.1738 50.6862 18.5221 50.9922 18.75C51.3047 18.9714 51.6432 19.082 52.0078 19.082C52.3659 19.082 52.6979 18.9714 53.0039 18.75C53.3164 18.5221 53.5866 18.1738 53.8145 17.7051C54.0423 17.2363 54.2214 16.6374 54.3516 15.9082C54.4818 15.179 54.5469 14.3099 54.5469 13.3008ZM59.7129 6.58203C59.6543 7.48698 59.612 8.41146 59.5859 9.35547C59.5599 10.2995 59.5404 11.2109 59.5273 12.0898C59.7617 11.7448 60.0059 11.3639 60.2598 10.9473C60.5137 10.5306 60.7741 10.0879 61.041 9.61914C61.3145 9.15039 61.5879 8.66211 61.8613 8.1543C62.1348 7.63997 62.4049 7.11589 62.6719 6.58203H64.7031C64.4167 6.97266 64.1074 7.4056 63.7754 7.88086C63.4434 8.35612 63.1081 8.8444 62.7695 9.3457C62.431 9.84701 62.0957 10.3516 61.7637 10.8594C61.4316 11.3672 61.1191 11.8457 60.8262 12.2949C61.0996 12.9329 61.3926 13.5775 61.7051 14.2285C62.0176 14.873 62.3529 15.5176 62.7109 16.1621C63.0755 16.8066 63.4661 17.4512 63.8828 18.0957C64.2995 18.7337 64.7487 19.3685 65.2305 20H63.1699C63.0072 19.7526 62.8314 19.4661 62.6426 19.1406C62.4538 18.8086 62.2585 18.457 62.0566 18.0859C61.8613 17.7083 61.6628 17.3177 61.4609 16.9141C61.2591 16.5104 61.0605 16.1133 60.8652 15.7227C60.6764 15.3255 60.4974 14.9447 60.3281 14.5801C60.1589 14.209 60.0059 13.8704 59.8691 13.5645L59.5273 14.1406C59.5273 14.5898 59.5306 15.0618 59.5371 15.5566C59.5501 16.0449 59.5632 16.543 59.5762 17.0508C59.5892 17.5586 59.6055 18.0632 59.625 18.5645C59.6445 19.0658 59.6673 19.5443 59.6934 20H57.8672C57.9062 19.4466 57.9355 18.8802 57.9551 18.3008C57.9811 17.7148 58.0007 17.1354 58.0137 16.5625C58.0267 15.9831 58.0365 15.4167 58.043 14.8633C58.0495 14.3099 58.0527 13.7826 58.0527 13.2812C58.0527 12.7799 58.0495 12.2526 58.043 11.6992C58.0365 11.1458 58.0267 10.5827 58.0137 10.0098C58.0007 9.43685 57.9811 8.86068 57.9551 8.28125C57.9355 7.70182 57.9062 7.13542 57.8672 6.58203H59.7129ZM67.916 6.58203C67.877 7.13542 67.8444 7.70182 67.8184 8.28125C67.7988 8.86068 67.7826 9.43685 67.7695 10.0098C67.7565 10.5827 67.7467 11.1458 67.7402 11.6992C67.7337 12.2526 67.7305 12.7799 67.7305 13.2812C67.7305 13.7826 67.7337 14.3099 67.7402 14.8633C67.7467 15.4167 67.7565 15.9831 67.7695 16.5625C67.7826 17.1354 67.7988 17.7148 67.8184 18.3008C67.8379 18.8802 67.8639 19.4466 67.8965 20H66.0703C66.1094 19.4466 66.1387 18.8802 66.1582 18.3008C66.1842 17.7148 66.2038 17.1354 66.2168 16.5625C66.2298 15.9831 66.2396 15.4167 66.2461 14.8633C66.2526 14.3099 66.2559 13.7826 66.2559 13.2812C66.2559 12.7799 66.2526 12.2526 66.2461 11.6992C66.2396 11.1458 66.2298 10.5827 66.2168 10.0098C66.2038 9.43685 66.1842 8.86068 66.1582 8.28125C66.1387 7.70182 66.1094 7.13542 66.0703 6.58203H67.916ZM75.6504 13.5742C75.6374 12.5586 75.6146 11.6732 75.582 10.918C75.556 10.1562 75.4941 9.52799 75.3965 9.0332C75.3053 8.5319 75.1686 8.15755 74.9863 7.91016C74.804 7.66276 74.5534 7.53906 74.2344 7.53906C74.0651 7.53906 73.86 7.5944 73.6191 7.70508C73.3848 7.81576 73.1439 7.96549 72.8965 8.1543C72.6491 8.33659 72.4115 8.54492 72.1836 8.7793C71.9557 9.01367 71.7669 9.2513 71.6172 9.49219C71.5781 10.7812 71.5586 12.0866 71.5586 13.4082C71.5586 14.0137 71.5618 14.5898 71.5684 15.1367C71.5749 15.6836 71.5846 16.2207 71.5977 16.748C71.6107 17.2754 71.6302 17.806 71.6562 18.3398C71.6823 18.8672 71.7116 19.4206 71.7441 20H69.9375C69.9701 19.4206 69.9961 18.8672 70.0156 18.3398C70.0417 17.806 70.0612 17.2754 70.0742 16.748C70.0938 16.2207 70.1068 15.6836 70.1133 15.1367C70.1198 14.5898 70.123 14.0137 70.123 13.4082C70.123 12.8027 70.1198 12.2168 70.1133 11.6504C70.1068 11.0775 70.0938 10.5143 70.0742 9.96094C70.0612 9.40104 70.0417 8.8444 70.0156 8.29102C69.9961 7.73112 69.9701 7.16146 69.9375 6.58203H71.7539L71.666 8.0957C71.8613 7.86133 72.0794 7.63997 72.3203 7.43164C72.5612 7.2168 72.8118 7.02799 73.0723 6.86523C73.3327 6.70247 73.5996 6.57552 73.873 6.48438C74.1465 6.38672 74.4167 6.33789 74.6836 6.33789C75.4583 6.33789 76.0573 6.64714 76.4805 7.26562C76.9102 7.8776 77.125 8.79232 77.125 10.0098C77.125 10.3092 77.1217 10.6315 77.1152 10.9766C77.1152 11.3151 77.112 11.6504 77.1055 11.9824C77.099 12.3079 77.0924 12.6107 77.0859 12.8906C77.0859 13.1706 77.0859 13.3984 77.0859 13.5742C77.0859 14.1797 77.0892 14.7461 77.0957 15.2734C77.1022 15.8008 77.112 16.3184 77.125 16.8262C77.138 17.334 77.1543 17.8451 77.1738 18.3594C77.1999 18.8737 77.2292 19.4206 77.2617 20H75.4648C75.4974 19.4206 75.5267 18.8737 75.5527 18.3594C75.5788 17.8451 75.6016 17.334 75.6211 16.8262C75.6406 16.3184 75.6504 15.8008 75.6504 15.2734C75.6569 14.7461 75.6569 14.1797 75.6504 13.5742ZM83.043 13.3984H86.5977C86.5716 13.9323 86.5521 14.4564 86.5391 14.9707C86.5326 15.485 86.5293 15.9766 86.5293 16.4453C86.5293 16.9141 86.5293 17.3438 86.5293 17.7344C86.5358 18.1185 86.5456 18.4505 86.5586 18.7305C86.5716 19.0625 86.5846 19.3587 86.5977 19.6191C86.2656 19.7884 85.862 19.9316 85.3867 20.0488C84.9115 20.166 84.3353 20.2246 83.6582 20.2246C82.9811 20.2246 82.3529 20.0846 81.7734 19.8047C81.194 19.5247 80.6895 19.1016 80.2598 18.5352C79.8301 17.9622 79.4915 17.2428 79.2441 16.377C79.0033 15.5046 78.8828 14.4792 78.8828 13.3008C78.8828 12.1224 79.0098 11.1003 79.2637 10.2344C79.5241 9.36198 79.8757 8.64258 80.3184 8.07617C80.7611 7.50326 81.2754 7.07682 81.8613 6.79688C82.4538 6.51693 83.082 6.37695 83.7461 6.37695C84.0195 6.37695 84.2669 6.38997 84.4883 6.41602C84.7096 6.43555 84.9147 6.46484 85.1035 6.50391C85.2988 6.54297 85.4811 6.5918 85.6504 6.65039C85.8197 6.70898 85.9857 6.77083 86.1484 6.83594V8.80859C85.7253 8.33333 85.3249 8.0013 84.9473 7.8125C84.5762 7.61719 84.1725 7.51953 83.7363 7.51953C83.235 7.51953 82.7891 7.65951 82.3984 7.93945C82.0078 8.21289 81.6758 8.60352 81.4023 9.11133C81.1354 9.61914 80.9303 10.2279 80.7871 10.9375C80.6504 11.6406 80.582 12.4219 80.582 13.2812C80.582 14.1146 80.6471 14.8861 80.7773 15.5957C80.9076 16.2988 81.1029 16.9108 81.3633 17.4316C81.6237 17.946 81.9492 18.3496 82.3398 18.6426C82.737 18.9355 83.1992 19.082 83.7266 19.082C83.9544 19.082 84.153 19.0658 84.3223 19.0332C84.498 18.9941 84.6706 18.929 84.8398 18.8379C84.8464 18.6947 84.8529 18.5286 84.8594 18.3398C84.8659 18.1771 84.8724 17.9818 84.8789 17.7539C84.8854 17.5195 84.8887 17.2493 84.8887 16.9434C84.8887 16.6113 84.8822 16.2435 84.8691 15.8398C84.8626 15.4362 84.8464 15 84.8203 14.5312H83.043V13.3984ZM95.3477 6.58203C95.8685 6.58203 96.3405 6.64714 96.7637 6.77734C97.1934 6.90104 97.5612 7.09635 97.8672 7.36328C98.1732 7.6237 98.4076 7.96224 98.5703 8.37891C98.7396 8.79557 98.8242 9.29036 98.8242 9.86328C98.8242 10.3255 98.7754 10.7292 98.6777 11.0742C98.5801 11.4193 98.4466 11.7122 98.2773 11.9531C98.1146 12.194 97.9258 12.3893 97.7109 12.5391C97.4961 12.6823 97.2682 12.7832 97.0273 12.8418C97.3138 12.8939 97.5905 13.0013 97.8574 13.1641C98.1309 13.3203 98.3717 13.5417 98.5801 13.8281C98.7884 14.1081 98.9544 14.4531 99.0781 14.8633C99.2018 15.2734 99.2637 15.752 99.2637 16.2988C99.2637 16.8717 99.1986 17.3861 99.0684 17.8418C98.9447 18.2975 98.7428 18.6849 98.4629 19.0039C98.1895 19.3229 97.8314 19.5703 97.3887 19.7461C96.9525 19.9154 96.4186 20 95.7871 20H92.3398C92.3789 19.4466 92.4082 18.8802 92.4277 18.3008C92.4538 17.7148 92.4733 17.1354 92.4863 16.5625C92.4993 15.9831 92.5091 15.4167 92.5156 14.8633C92.5221 14.3099 92.5254 13.7826 92.5254 13.2812C92.5254 12.7799 92.5221 12.2526 92.5156 11.6992C92.5091 11.1458 92.4993 10.5827 92.4863 10.0098C92.4733 9.43685 92.4538 8.86068 92.4277 8.28125C92.4082 7.70182 92.3789 7.13542 92.3398 6.58203H95.3477ZM94 13.457C94 14.2839 94.0065 15.1628 94.0195 16.0938C94.0391 17.0182 94.0684 17.946 94.1074 18.877H95.6992C95.9922 18.877 96.2559 18.8314 96.4902 18.7402C96.7246 18.6426 96.9232 18.4831 97.0859 18.2617C97.2487 18.0404 97.3724 17.7539 97.457 17.4023C97.5417 17.0443 97.584 16.6048 97.584 16.084C97.584 15.5762 97.5352 15.1562 97.4375 14.8242C97.3464 14.4857 97.2129 14.2155 97.0371 14.0137C96.8678 13.8118 96.6628 13.6686 96.4219 13.584C96.181 13.4993 95.9141 13.457 95.6211 13.457H94ZM94.1172 7.69531C94.0781 8.48307 94.0488 9.27409 94.0293 10.0684C94.0163 10.8561 94.0065 11.6146 94 12.3438H95.4648C95.7839 12.3438 96.0508 12.3014 96.2656 12.2168C96.487 12.1322 96.6628 12.002 96.793 11.8262C96.9232 11.6439 97.0176 11.4128 97.0762 11.1328C97.1348 10.8529 97.1641 10.5208 97.1641 10.1367C97.1641 9.76562 97.138 9.43034 97.0859 9.13086C97.0339 8.82487 96.9427 8.56771 96.8125 8.35938C96.6823 8.14453 96.5065 7.98177 96.2852 7.87109C96.0703 7.75391 95.7969 7.69531 95.4648 7.69531H94.1172ZM102.193 13.0078C102.2 13.4831 102.206 13.9388 102.213 14.375C102.219 14.8047 102.229 15.2116 102.242 15.5957C102.255 15.9733 102.271 16.3184 102.291 16.6309C102.311 16.9434 102.337 17.2135 102.369 17.4414C102.454 18.0078 102.617 18.418 102.857 18.6719C103.098 18.9193 103.408 19.043 103.785 19.043C104 19.043 104.221 18.9876 104.449 18.877C104.677 18.7663 104.895 18.6198 105.104 18.4375C105.318 18.2552 105.52 18.0469 105.709 17.8125C105.904 17.5781 106.077 17.3372 106.227 17.0898C106.266 15.8008 106.285 14.4954 106.285 13.1738C106.285 12.5684 106.282 11.9922 106.275 11.4453C106.269 10.8984 106.256 10.3613 106.236 9.83398C106.223 9.30664 106.204 8.7793 106.178 8.25195C106.158 7.7181 106.132 7.16146 106.1 6.58203H107.906C107.874 7.16146 107.844 7.7181 107.818 8.25195C107.799 8.7793 107.779 9.30664 107.76 9.83398C107.747 10.3613 107.737 10.8984 107.73 11.4453C107.724 11.9922 107.721 12.5684 107.721 13.1738C107.721 13.7793 107.724 14.3685 107.73 14.9414C107.737 15.5078 107.747 16.071 107.76 16.6309C107.779 17.1842 107.799 17.7409 107.818 18.3008C107.844 18.8542 107.874 19.4206 107.906 20H106.09C106.103 19.7461 106.116 19.4954 106.129 19.248C106.142 18.9941 106.155 18.7435 106.168 18.4961C105.979 18.7305 105.777 18.9551 105.562 19.1699C105.354 19.3783 105.126 19.5638 104.879 19.7266C104.632 19.8828 104.365 20.0065 104.078 20.0977C103.798 20.1953 103.492 20.2441 103.16 20.2441C102.385 20.2441 101.783 19.9382 101.354 19.3262C100.93 18.7077 100.719 17.7897 100.719 16.5723C100.719 16.2728 100.719 15.9538 100.719 15.6152C100.725 15.2702 100.732 14.9349 100.738 14.6094C100.745 14.2773 100.748 13.9714 100.748 13.6914C100.755 13.4115 100.758 13.1836 100.758 13.0078C100.758 12.4023 100.755 11.8359 100.748 11.3086C100.742 10.7812 100.732 10.2637 100.719 9.75586C100.706 9.24805 100.686 8.73698 100.66 8.22266C100.641 7.70833 100.615 7.16146 100.582 6.58203H102.379C102.346 7.16146 102.317 7.70833 102.291 8.22266C102.265 8.73698 102.242 9.24805 102.223 9.75586C102.21 10.2637 102.2 10.7812 102.193 11.3086C102.187 11.8359 102.187 12.4023 102.193 13.0078ZM112.916 6.58203C113.613 6.58203 114.251 6.68945 114.83 6.9043C115.41 7.11914 115.904 7.48698 116.314 8.00781C116.731 8.52214 117.053 9.20898 117.281 10.0684C117.516 10.9277 117.633 11.9987 117.633 13.2812C117.633 14.5703 117.516 15.6478 117.281 16.5137C117.053 17.373 116.731 18.0632 116.314 18.584C115.898 19.0983 115.4 19.4629 114.82 19.6777C114.241 19.8926 113.6 20 112.896 20H109.859C109.898 19.4466 109.928 18.8802 109.947 18.3008C109.973 17.7148 109.993 17.1354 110.006 16.5625C110.019 15.9831 110.029 15.4167 110.035 14.8633C110.042 14.3099 110.045 13.7826 110.045 13.2812C110.045 12.7799 110.042 12.2526 110.035 11.6992C110.029 11.1458 110.019 10.5827 110.006 10.0098C109.993 9.43685 109.973 8.86068 109.947 8.28125C109.928 7.70182 109.898 7.13542 109.859 6.58203H112.916ZM111.637 7.69531C111.591 8.65885 111.559 9.6224 111.539 10.5859C111.526 11.543 111.52 12.4414 111.52 13.2812C111.52 14.1211 111.526 15.026 111.539 15.9961C111.552 16.9596 111.581 17.9199 111.627 18.877H112.936C113.215 18.877 113.482 18.8477 113.736 18.7891C113.997 18.724 114.234 18.6133 114.449 18.457C114.671 18.3008 114.872 18.0892 115.055 17.8223C115.237 17.5488 115.39 17.207 115.514 16.7969C115.644 16.3802 115.742 15.8854 115.807 15.3125C115.878 14.7331 115.914 14.056 115.914 13.2812C115.914 12.5065 115.878 11.8327 115.807 11.2598C115.742 10.6803 115.644 10.1855 115.514 9.77539C115.39 9.35872 115.237 9.01693 115.055 8.75C114.872 8.48307 114.671 8.27148 114.449 8.11523C114.234 7.95898 113.997 7.85156 113.736 7.79297C113.482 7.72786 113.215 7.69531 112.936 7.69531H111.637Z" fill="black"/>
</svg>
