<svg width="36" height="37" viewBox="0 0 36 37" fill="none" xmlns="http://www.w3.org/2000/svg">
<path d="M36 27.75C36 28.8404 35.5786 29.886 34.8284 30.657C34.0783 31.428 33.0609 31.8611 32 31.8611H4C2.93913 31.8611 1.92172 31.428 1.17157 30.657C0.421427 29.886 0 28.8404 0 27.75V9.25003C0 8.15969 0.421427 7.11401 1.17157 6.34303C1.92172 5.57205 2.93913 5.13892 4 5.13892H32C33.0609 5.13892 34.0783 5.57205 34.8284 6.34303C35.5786 7.11401 36 8.15969 36 9.25003V27.75Z" fill="#C60A1D"/>
<path d="M0 12.3333H36V24.6666H0V12.3333Z" fill="#FFC400"/>
<path d="M9 17.4722V20.5556C9 21.3733 9.31607 22.1576 9.87868 22.7358C10.4413 23.314 11.2043 23.6389 12 23.6389C12.7956 23.6389 13.5587 23.314 14.1213 22.7358C14.6839 22.1576 15 21.3733 15 20.5556V17.4722H9Z" fill="#EA596E"/>
<path d="M12 16.4445H15V19.5278H12V16.4445Z" fill="#F4A2B2"/>
<path d="M9 16.4445H12V19.5278H9V16.4445Z" fill="#DD2E44"/>
<path d="M12 16.4444C13.6569 16.4444 15 15.7542 15 14.9028C15 14.0513 13.6569 13.3611 12 13.3611C10.3431 13.3611 9 14.0513 9 14.9028C9 15.7542 10.3431 16.4444 12 16.4444Z" fill="#EA596E"/>
<path d="M12 14.9028C13.6569 14.9028 15 14.5576 15 14.1319C15 13.7062 13.6569 13.3611 12 13.3611C10.3431 13.3611 9 13.7062 9 14.1319C9 14.5576 10.3431 14.9028 12 14.9028Z" fill="#FFAC33"/>
<path d="M7 16.4445H8V23.6389H7V16.4445ZM16 16.4445H17V23.6389H16V16.4445Z" fill="#99AAB5"/>
<path d="M6 22.6111H9V23.6389H6V22.6111ZM15 22.6111H18V23.6389H15V22.6111ZM7 15.4167H8V16.4445H7V15.4167ZM16 15.4167H17V16.4445H16V15.4167Z" fill="#66757F"/>
</svg>
